<?xml version="1.0" encoding="UTF-8"?>
<svg id="a" xmlns="http://www.w3.org/2000/svg" viewBox="0 0 800 600.7"><path d="M627.83,392.29c31.48-.84,53.93,12.12,66.52,40.59,6.38,14.44,6.64,29.55,1.51,44.49-5.08,14.79-14.46,26.48-28.14,35.66,20.97,.99,41.04,1.93,61.1,2.87,.03,.58,.06,1.16,.08,1.74-3.63,.43-7.25,1.09-10.89,1.26-22.84,1.04-45.68,2.71-68.53,2.82-105.03,.53-210.05,.73-315.08,.83-46.82,.04-93.65-.16-140.47-.8-26.21-.36-52.4-1.77-78.59-2.87-5.68-.24-11.33-1.16-16.99-2.48,23.49-2.98,47.11-2.74,71.45-3.85-1.82-1.5-3.06-2.52-4.31-3.54-18.66-15.31-27.28-34.94-25.27-59.06,.17-2.06-.15-3.12-1.85-4.4-3.04-2.29-5.59-5.23-8.57-7.6-1.44-1.14-3.38-2.12-5.17-2.29-5.24-.49-10.52-.48-15.78-.76-5.47-.3-6.15-1.05-6.15-6.41-.01-6.93,0-13.85,0-21.11,4.12,.22,7.88,.44,11.64,.63,3.58,.18,7.19,.16,10.75,.54,4.32,.46,7.58-.42,8.35-5.92-5.25-2.23-3.39-6.48-2.07-10.66,3.12-9.89,6.15-19.81,9.35-29.68,2.2-6.79,6.37-11.93,13.02-14.95,14.03-6.35,28.02-12.77,42-19.22,1.07-.49,2.7-1.45,2.73-2.23,.23-6.17,.13-12.35,.13-18.72-1.94,.36-3.83,.62-5.67,1.06-3.06,.72-5.8,.92-6.59-3.53-5.85,1.54-11.47,3.04-17.09,4.49-1.84,.48-3.72,1.23-5.57,1.2-2.57-.04-4.77-.05-6.83,2-.73,.73-2.98,.32-4.38-.1-2.28-.67-4.42-1.79-6.64-2.68-2.37-.95-4.5-2.05-7.38-.65-2.47,1.2-4.7-.15-5.04-3.27-.62-5.7-1.25-11.4-1.75-17.11-.61-6.91-1.18-13.82-1.61-20.74-.45-7.39,2-13.17,11.11-12.42,.3,.02,.62-.23,.66-.24-1.45-5.36-3.38-10.54-4.14-15.88-.74-5.27-.89-10.78-.24-16.05,1.2-9.82,8.94-16.32,19.86-15.7,9.22,.52,18.35,2.8,27.51,4.41,3.98,.7,7.9,1.7,12.35,2.66,.11-1.74,.28-3.22,.28-4.69,.02-26.95,0-53.89,.02-80.84,0-2.51,.02-5.04,.33-7.53,1.17-9.42,6.78-14.97,15.64-17.59,1.59-.47,3.21-.83,5.02-1.29-6.75-1.96-14.87,2.26-21.17,10.9-5.9-2.67-11.92-5.22-17.77-8.1-4.27-2.1-5.01-4.39-3.26-8.82,2.35-5.93,6.5-9.6,13.14-10.03,29.01-1.85,57.99-4.23,87.03-5.43,25.59-1.06,51.24-1.16,76.86-1.03,34.84,.18,69.69,.7,104.52,1.63,15.75,.42,31.54,1.62,47.18,3.57,12.36,1.54,23.64,6.74,33.17,15.06,1.95,1.7,3.68,3.8,5.03,6.01,2.42,3.96,1.38,6.41-3.15,7.23-4.22,.76-8.53,1.23-12.81,1.41-13.52,.57-27.04,.94-40.56,1.41-.8,.03-1.6,.21-2.89,.39,12.27,31.73,24.43,63.19,36.66,94.84,3.75-1.28,7.22-2.46,11.01-3.75,10.08,24.64,20.09,49.13,30.2,73.84-.84,.54-1.7,1.1-2.87,1.86l-23.52-36.01-.79,.41c1.96,4.95,3.89,9.91,5.88,14.84,3.17,7.87,6.49,15.67,9.51,23.6,1.17,3.08,2.88,4.37,6.17,5.39,12.99,4.02,26,8.17,38.6,13.26,17.15,6.93,34.34,13.97,50.76,22.43,21.35,11,33.99,29.89,42.36,51.89,.34,.89,.54,1.83,.74,2.77,.76,3.53-.65,5-4.23,4.29-5.85-1.17-11.64-2.89-17.54-3.53-11.4-1.25-22.85-1.93-34.29-2.8-2.95-.22-4.49,1.31-4.55,4.25-.05,2.6-.01,5.21-.01,7.82ZM382.68,99.11c.71-.09,1.42-.26,2.13-.27,22.49-.38,44.99-.83,67.48-1.06,7.11-.07,14.37,.03,19.76,6.21-1.08-1.98-2.16-3.96-3.38-6.2,1.09-.16,1.67-.31,2.24-.32,15.91-.06,31.82-.09,47.73-.14,6.09-.02,11.49,1.83,16.2,5.73,.44,.37,1.09,.47,2.24,.94-3.88-5.53-7.98-8.55-14.64-8.38-22.24,.54-44.5,.43-66.74,.83-22.49,.4-44.97,1.1-67.45,1.74-1.86,.05-3.7,.61-5.55,.93-9.04,0-18.08,0-27.12,0,9.04,0,18.08,0,27.12,0Zm-78.37,78.23c2.64,2.86,5.6,5.91,8.38,9.11,3.9,4.5,8.26,8.74,11.36,13.75,5.28,8.51,9.67,17.57,14.55,26.33,2.93,5.26,6.38,10.06,11.99,12.93,1.88,.96,3.3,2.83,5.16,3.84,2.21,1.2,4.62,2.15,7.06,2.8,3.99,1.06,8.19,1.29,11.03,5.09,1.31,1.75,3.28,3.62,5.28,4.13,6.23,1.59,12.61,2.65,18.96,3.73,6.74,1.15,13.18-.47,19.78-2.23-1.42-4.2-.25-7.62,1.83-10.84,1.23-1.91,2.44-3.85,3.86-5.61,10.73-13.26,22.65-25.38,35.92-36.07,5.27-4.25,11.13-7.8,16.94-11.33,2.68-1.63,5.94-2.31,8.72,.16,2.6,2.31,3.07,5.53,2.25,8.6-1.33,4.93-2.2,10.43-5.06,14.41-4.9,6.82-4.33,13.12-.83,19.76,1.48,2.8,3.6,5.3,5.69,7.72,5.79,6.7,12.05,13.03,17.49,20,5.28,6.74,11.77,12.25,16.17,20.08,4.43,7.88,12.29,13.84,18.96,20.98,1.3-1.46,2.99-2.5,3.33-3.87,1.2-4.79,2.67-9.7-.69-14.36-.68-.95-1.02-2.16-1.45-3.27-21.06-53.82-42.14-107.63-63.07-161.5-1.46-3.76-3.09-5.16-7.37-5.02-40.08,1.38-80.17,2.46-120.25,3.66-10.17,.3-20.34,.71-30.51,1.11-4.03,.16-8.31,1.01-9.66-4.55-.12-.51-.76-.9-1.18-1.32-5.43-5.4-12.19-7.43-19.61-7.22-3.96,.11-7.96,.77-10.93,3.45,4.65-.23,9.49-1.28,14.05-.55,12.37,1.96,19.6,6.5,19.19,18.28-12.93-4.92-23.95,1.74-36.09,5.2,3.33,3.24,6.47,3.64,9.89,2.45,2.25-.79,4.51-1.6,6.66-2.62,8.57-4.1,17.21-3.22,25.84-.41,1.74,.57,3.42,1.77,4.71,3.08,.74,.76,1.2,2.62,.77,3.46-.4,.79-2.17,1.24-3.31,1.2-1.57-.06-3.13-.72-5.06-1.22-2.94,12.24-3.47,24.91-10.75,36.7Zm40.07,114.59c15.62,2.88,31.94,5.82,48.24,8.92,7.26,1.38,14.58,2.68,21.67,4.75,7.64,2.22,12.25,7.55,13.15,15.76,.84,7.6,1.54,15.23,2.82,22.75,2.93,17.3,6,34.59,9.42,51.8,.9,4.54,2.28,8.59-2.76,11.36,5.21,2.51,10.01,4.84,14.82,7.15,5.25,2.52,10.44,5.18,16.61,3.53,1.35-.36,2.86-.13,4.29-.12,3.12,0,5.04,1.72,6.43,4.38,.92,1.76,.63,2.9-1.2,3.7-3.72,1.62-7.33,3.51-11.14,4.86-6.31,2.24-12.63,2.91-19.26,.49-3.12-1.14-6.83-1.05-10.25-.88-6.68,.34-13.33,1.31-20.01,1.63-2.72,.13-5.49-.73-8.24-1.14l-.61,1.01c1.17,.83,2.25,2.19,3.51,2.38,3.88,.59,7.82,.93,11.75,1.01,7.06,.16,14.18-.5,21.17,.22,10.01,1.03,19.52-.17,28.81-3.81,1.54-.6,3.19-1.32,4.79-1.33,11.96-.11,23.92-.06,36.01-.06-.02,4.37-1.89,6.96-4.9,8.04-3.3,1.18-6.94,2.05-10.42,2-25.74-.35-51.48-.97-77.22-1.48-6.59-.13-13.17-.26-19.76-.19-1.15,.01-2.29,.98-3.43,1.51,1.04,.54,2.06,1.12,3.13,1.59,.41,.18,.94,.11,1.42,.12,13.53,.3,27.05,.64,40.58,.89,18.56,.34,37.12,.73,55.68,.88,9.7,.08,15.38-4.23,17.93-13.12,8.81-30.62,17.59-61.25,26.33-91.9,1.65-5.8,3.06-11.67,4.58-17.51l-.91-.26c-2.27,7.49-4.55,14.99-7.07,23.29-4.16-4.61-7.87-8.5-11.31-12.62-3.66-4.39-3.49-9.18-.77-14.02,.64-1.14,1.31-2.26,2.07-3.56-7.11-7.34-14.18-14.64-21.26-21.93-.31-.32-.9-.84-1.12-.74-2.52,1.16-3.38-1.09-4.58-2.3-11.89-11.99-24.01-23.78-35.42-36.21-4.59-5-10.08-5.24-15.77-6.04-.84-.12-1.96,.26-2.64,.8-7.01,5.51-14.67,9.7-23.55,11.67,3.14,4.07,6.19,7.87,9.02,11.83,.53,.73,.17,2.1,.22,3.17-1.11,0-2.32,.27-3.3-.09-1.14-.42-2.07-1.39-3.48-2.41,.7,2.68,1.27,4.87,1.84,7.06-.41,.29-.81,.57-1.22,.86l-4.46-4.2c-.8,1.19-1.62,2.41-2.44,3.63-1.06-1.32-2.15-2.62-3.17-3.97-.19-.25,.01-.83-.19-1.03-.8-.8-1.69-2.11-2.56-2.12-2.58-.05-5.16,.57-7.75,.64-1.82,.05-3.68-.27-5.48-.62-1.96-.38-3.87-1.42-5.8-1.41-7.54,.03-15.08,.63-22.61,.48-4.56-.09-8.11,.76-10.42,5.05-1.39,2.57-3.54,2.94-6.39,1.81-6.44-2.54-13-4.75-19.52-7.09-1.59-.57-3.18-1.14-4.77-1.72,2.34,6.35,2.42,13.33,8.31,17.63,1.24,.91,1.54,3.09,2.52,5.21Zm253.46,219.91c-.74-.77-.95-1.08-1.23-1.29-16.4-11.7-26.63-27.16-29.09-47.42-.1-.8-1.32-1.97-2.16-2.1-4.36-.68-8.9-.6-13.13-1.71-5.73-1.49-9.18,.23-12.31,5.17-4.32,6.8-10.64,9.73-19.17,9.47-29.8-.91-59.61-1.18-89.42-1.74-36.87-.7-73.74-1.45-110.61-2.2-2.1-.04-3.73-.05-4.66,2.57-5.42,15.37-15.73,26.57-29.94,34.32-.63,.34-1.17,.84-2.43,1.77,105.11,1.05,209.32,2.1,314.15,3.15ZM266.69,121.93c-5.78,.56-11.8,.59-17.56,1.81-12.88,2.72-17.82,9.07-17.89,22.1-.08,14.13-.01,28.26,0,42.39,0,1.02,.12,2.05,.19,3.09,.47-.04,.79,.03,.91-.1,6.61-6.8,14.45-11.62,23.21-15.25,2.24-.93,3.96-3.5,5.48-5.63,1.58-2.21,2.44-4.93,3.97-7.19,.7-1.04,2.16-1.69,3.4-2.2,1.04-.43,2.28-.39,3.43-.56-.31-1.32-.4-2.74-.97-3.93-1.69-3.54-3.95-6.87-5.2-10.54-.61-1.8-.05-4.62,1.09-6.15,.67-.9,3.52-.16,6.58-.16-2.64-1.38-4.55-2.38-6.65-3.48v-14.17Zm-43.48,68.86c0-12.66-.09-25.58,.03-38.49,.09-10.04-1.17-20.42,6.71-29.16-7.97-.43-15.23-.82-23.09-1.24v64.4c5.25,1.44,10.56,2.89,16.35,4.48Zm-70.28,206.62l.52,.96c.89-.24,1.81-.42,2.68-.73,16.61-5.85,33.52-10.32,51.17-11.63,22.61-1.68,41.23,5.31,54.04,24.8,4.66,7.09,8.98,14.41,13.39,21.66,4.11,6.76,9.93,11.65,17.53,13.34,8.34,1.85,16.92,3.21,25.44,3.51,25.59,.91,51.21,1.23,76.82,1.73,35.9,.71,71.8,1.37,107.7,2.05,1.66,.03,3.33,0,4.99,0-8.63-1.09-17.23-1.46-25.84-1.76-33.85-1.16-67.69-2.35-101.54-3.44-24.76-.8-49.53-1.26-74.28-2.27-12.05-.49-21.81-5.71-28.22-16.36-3.39-5.63-6.9-11.19-10.33-16.8-10.49-17.13-25.22-27.92-45.57-29.9-20.82-2.02-40.64,2.45-59.89,9.99-3.03,1.19-5.74,3.2-8.6,4.84Zm-20.33-2.47l.02,.78c1.49,.07,2.98,.19,4.47,.21,10.53,.08,19.6-4.12,28.64-9.08,21.29-11.67,43.82-16.72,68.07-11.35,17.95,3.98,33.04,12.26,43.68,27.71,3.6,5.22,7.44,10.27,11.15,15.41,7.42,10.27,16.76,17.63,29.97,17.78,22.86,.26,45.73,.04,68.6,.07,2.75,0,3.92-1.12,3.62-3.93-.52-4.87-.91-9.76-1.35-14.64-1.68-18.82-3.35-37.64-5.06-56.45-.08-.86-.56-1.69-.85-2.53l-1.4,.27c2.19,25.17,4.38,50.33,6.59,75.77-1.83,.1-3,.24-4.17,.22-20.35-.33-40.69-.82-61.04-.97-10.87-.08-19.92-3.83-26.71-12.27-5.39-6.7-10.16-13.9-15.48-20.66-3.76-4.77-7.52-9.7-12.06-13.67-15.82-13.83-34.92-18.02-55.35-17.64-18.52,.34-35.27,6.56-51.34,15.3-5.62,3.05-11.64,5.49-17.69,7.56-3.89,1.32-8.19,1.45-12.31,2.11Zm116.33,61.78c-.09-24.7-20.06-44.22-45.14-44.12-24.91,.09-45.25,20.24-45.21,44.77,.04,24.1,20.16,43.29,45.25,43.18,25.21-.12,45.18-19.53,45.1-43.83Zm384.79-44.28c-25.39,.04-46.1,20.17-46.04,44.74,.05,23.92,20.11,43.32,44.77,43.31,25.43-.01,45.9-19.81,45.89-44.38,0-24.34-19.8-43.71-44.62-43.67Zm-392.67-92.43c-.37,.08-.74,.15-1.11,.23,.19,1.64,.26,3.3,.6,4.9,3.15,15.06,9.43,25.85,26.93,26.55,19.02,.76,38.03,1.5,57.05,2.25,19.62,.77,39.23,1.53,58.85,2.34,4.51,.19,9.01,.54,13.74,.83,1.68,24.17,3.35,48.1,5.02,72.08h4.93c.58-5.75,1.37-11.25,1.6-16.79,.11-2.49-1.02-5-1.36-7.53-.89-6.51-1.44-13.06-2.52-19.54-1.97-11.75-5.81-23.23-4.71-35.4,.1-1.09-.85-2.28-1.31-3.43-.36,.08-.73,.16-1.09,.24-.26,2.42-.52,4.84-.81,7.52-2.72,0-5.33,.1-7.93-.02-12.31-.57-24.63-1.25-36.94-1.82-27.74-1.28-55.49-2.59-83.23-3.74-10.47-.43-17.98-5.18-22.42-14.59-1.67-3.54-2.77-7.35-4.14-11.04-.38-1.02-.76-2.04-1.15-3.05Zm10.97-55.92v1.35c-8.01,0-16.02,0-24.03,.01-.83,0-1.81-.08-2.45,.32-1.01,.62-1.78,1.62-2.65,2.46,1.03,.57,2,1.32,3.09,1.66,.87,.27,1.9,.08,2.85,.05,13.87-.44,27.75-.68,41.6-1.39,9.77-.5,17.4,2.67,22.21,11.37,8.95,16.21,17.79,32.48,26.61,48.76,1.73,3.19,1.65,6.39-.75,9.38-.74,.92-1.29,2.01-1.8,3.08-1.3,2.71-.49,4.7,2.32,5.66,3.51,1.2,7.29,2.79,10.43-.39,3.26-3.31,.92-6.69-.77-9.81-7.14-13.11-14.33-26.19-21.54-39.26-4.09-7.42-7.93-15.01-12.43-22.17-4.78-7.62-11.94-11.37-21.16-11.1-7.17,.21-14.35,.04-21.53,.04Zm50.52-105.2c-1.81-2.14-3.39-4-5.72-6.75,3.4,.19,5.94,.34,9.27,.53-1.08-2.49-1.93-4.45-2.97-6.87-4.19,4.32-8.85,4.41-13.42,3.04-4.47-1.34-8.7-3.46-13.21-5.3-.39,1.82-.51,3.68-1.25,5.24-.35,.73-2.54,1.48-2.82,1.19-1.83-1.9-3.37-4.08-5.31-6.57,1.72-.57,2.55-.84,3.37-1.11-.92-.79-2.16-1.28-2.7-.86-.69,.53-1.35,1.99-1.08,2.71,1.01,2.77,1.84,5.91,3.75,7.97,3.04,3.29,3.39,7.05,3.9,11.06,.21,1.64,1.24,3.48,2.46,4.65,4.56,4.38,9.31,8.56,14.06,12.75,1.85,1.63,3.86,3.07,6.19,4.9,.97-2.87,1.73-5.13,2.52-7.48-11.13-1.23-22.31-10.48-22.63-18.44,4.39,6.3,10.09,10.9,17.51,12.9,3.55,.96,8.32,1.64,10.4-1.45,3.76-5.6,4.77-12.46,5.75-19.45-3.41,1.32-6.3,2.44-9.55,3.7,1.5,.94,3.23,2.03,5.56,3.51-.75,.89-1.45,2.5-2.31,2.6-3.39,.39-6.95,1.33-10.16-1.14,2.74-.43,5.48-.87,8.43-1.34Zm-86.18,146.67c.38,5.62,.67,10.08,.97,14.48,12.03-2.45,23.51-4.79,34.55-7.04-4.4-12.36-8.89-24.98-13.38-37.6l-1.09,.31c.26,5.72,.57,11.44,.77,17.16,.2,5.7-.61,6.38-6.59,5.19v15.45c-5.21-2.72-9.82-5.12-15.24-7.95Zm464.24,65.56l.9-1.03c-3.49-6.02-6.94-12.05-10.47-18.04-4.35-7.38-11.6-9.43-19.39-10.42-2.08-.26-3.63,.18-3.22,2.84,.83,5.42,1.45,10.88,2.54,16.24,.31,1.5,1.73,3.6,3.04,3.95,8.81,2.37,17.73,4.35,26.61,6.46Zm-204.43,49.21c-2.5,0-4.08,0-5.67,0-5.68-.02-11.01,3.89-17.17-1.13-4.76-3.87-11.71-5.09-17.75-7.32-1.19-.44-3.03-.6-3.97,.02-6.04,3.96-12.35,6.24-19.49,3.98-1.71,4.31-1.61,4.71,2.44,5.7,3.82,.93,7.81,1.22,11.56,2.36,5.6,1.7,10.23,1.63,13.17-4.42,.37-.76,1.84-.98,2.8-1.45-.09,.97,.02,2.03-.33,2.9-.69,1.72-1.63,3.34-2.46,4.99,7.68,3.89,30.33,.7,36.87-5.64Zm61.85,37.77c.28,.2,.56,.4,.84,.59,5.66-8.71,11.14-17.54,17.02-26.1,10.47-15.27,20.88-30.61,31.92-45.47,5.31-7.15,12.5-12.57,21.47-14.85,10.32-2.62,20.73-1.58,30.99,.11,12.22,2.02,24.32,4.78,36.49,7.15,2.75,.53,5.57,.73,8.35,1.09-.11-1.13-.33-1.47-.61-1.53-15.98-3.34-31.91-7.03-47.99-9.82-9.4-1.63-19.07-2.05-28.49,.66-11.51,3.31-20.03,11-26.56,20.4-12.06,17.36-23.33,35.27-34.81,53.03-3.09,4.78-5.76,9.83-8.62,14.75ZM220.55,220.47c0-5.9,.21-11.26-.06-16.6-.3-6.01-5.41-10.06-10.97-8.78-1.13,.26-2.77,1.8-2.81,2.81-.26,6.2-.19,12.41-.06,18.61,.02,.77,.94,2.06,1.62,2.18,3.96,.73,7.97,1.19,12.28,1.78Zm40.23,38.06l1.07-.32c-.45-2.14-.7-4.34-1.38-6.4-4.06-12.22-8.1-24.44-12.39-36.58-2.18-6.16-4.47-12.35-7.42-18.16-2.8-5.53-5.13-5.53-9.52-1.01-6.89,7.09-8.07,16.02-6.72,25.05,1.52,10.1,4.23,20.03,6.54,30,.63,2.7,1.67,5.31,2.53,7.95,.68-1.35,.69-2.54,.44-3.67-1.22-5.59-2.73-11.12-3.71-16.75-1.49-8.55-3.04-17.13-3.76-25.76-.5-6.01,1.99-11.44,6.31-15.87,3.39-3.48,4.65-3.5,6.9,.68,1.74,3.24,3.21,6.68,4.36,10.17,5.12,15.51,10.08,31.08,15.12,46.63,.45,1.38,1.08,2.7,1.62,4.04Zm-108.12-8.02c3.44-.25,7.86-.45,12.24-.92,4.26-.46,8.03-1.81,10.47-5.87,7.9-13.14,1.4-29.18-13.39-32.72-11.01-2.64-21.08,3.57-22.61,14.42-.66,4.66-.6,9.53-.13,14.23,.82,8.2,4.28,10.98,13.42,10.87Zm-15.98,131.29c.31,.23,.62,.47,.92,.7,1.4-.75,3.05-1.23,4.17-2.28,5.58-5.23,9.36-11.69,12.11-18.76,.31-.79,0-2.21-.56-2.86-1.53-1.76-3.36-3.27-5.88-5.64-3.77,10.12-7.27,19.48-10.76,28.84Zm175.57-55.24l.1-.77c-.62-.24-1.23-.63-1.88-.7-9.02-1.01-18.04-1.95-27.06-2.96-9.81-1.1-19.84-.75-29.21-4.74-1.49-.64-3.41-.29-5.13-.39l-.18,1.12c3.77,1.43,7.43,3.47,11.33,4.15,7.5,1.29,15.12,2.01,22.72,2.6,9.75,.76,19.53,1.15,29.29,1.71Zm152.19-117.1c-9.16,8.65-18.01,17.01-27.41,25.89,4.1,1.28,6.27,.71,8.5-1.56,5.7-5.8,11.54-11.49,17.68-16.82,2.52-2.19,2.78-4.06,1.23-7.51Zm-328.77,52.87l-1.32,.13c1.07,9.78,1.73,19.63,3.37,29.32,.96,5.64,6.01,8.44,12.02,7.9,3.92-.35,7.83-.96,11.72-1.59,4.35-.71,8.68-1.6,13.01-2.41-1.39-.84-2.68-.99-3.94-.82-6.16,.81-12.31,1.71-18.47,2.57-8.05,1.13-12.57-2.08-13.68-10.25-1.12-8.26-1.83-16.57-2.72-24.86Zm246.64,79.87c-4.59-5.44-10.81-8.08-17.9-9.32-11.17-1.95-23.01,1-33.71-4.75,.28,.69,.64,1.12,1.04,1.5,4.64,4.43,10.58,4.48,16.43,4.89,6.07,.42,12.27,.31,18.14,1.62,5.53,1.23,10.72,3.99,16.01,6.06Zm-119.68,148.04c10.37,2.88,28.96-9.13,32.74-20.89-4.16,1.7-5.05,6.74-8.61,9.07-3.87,2.53-7.49,5.54-11.6,7.57-3.92,1.93-8.34,2.88-12.53,4.25Zm-88.43-138.11c19.21-9.44,38.43-18.88,57.64-28.32-20.13,7.69-39.63,16.67-57.64,28.32ZM480,200.08c-8.44,1.8-10.62,7.47-6.41,16.69,2.84-5.45,5.95-10.45,6.41-16.69Zm-274.57,124.33c3.45-1.07,6.74-2.1,8.77-2.73-2.85-3.08-5.82-6.29-8.77-9.48v12.21Zm220.95-72.95c5.85-2.4,10.95-4.48,16.75-6.86-8.33-4.43-14.33-2.04-16.75,6.86Zm-231.25,4.25c-4.35,1.01-5.46,3.98-6.28,6.95-2.36,8.57-.39,21.12,3.52,23.32-3.41-15.59-3.56-20.31,2.76-30.28Zm61.77,51.68c11.66-4.91,20.34-15.22,33.11-18.15-14.09,.44-22.37,11.53-33.11,18.15Zm-50.41-48.26c3.28,8.8,4.56,17.09,1.75,25.72,5.76-2.34,4.78-20.46-1.75-25.72Zm121.91-159.42v.21h21.34v-.21h-21.34Zm-32.2,.74v.17h19.66v-.17h-19.66Z"/><path d="M203.56,417.23c22.38-.03,41.25,18.94,41.24,41.44-.01,21.72-18.59,39.52-41.29,39.57-22.42,.05-41.42-18.24-41.5-39.94-.08-22.47,18.72-41.05,41.55-41.08Zm-.09,79.01c22.18-.03,39.37-16.57,39.38-37.91,0-21.21-18.1-39.21-39.43-39.2-21.48,.01-38.93,17.62-39.33,38.82-.36,19.12,17.42,38.57,39.38,38.29Z"/><path d="M632.86,417.19c22.57,.04,41.45,18.43,41.47,40.4,.01,22.11-18.91,40.67-41.36,40.58-23.16-.1-41.71-18.11-41.65-40.43,.07-22.44,18.66-40.59,41.53-40.55Zm.2,1.9c-22.01-.04-39.73,17.38-39.76,39.06-.03,20.74,17.99,38.03,39.65,38.06,21.3,.03,39.44-17.39,39.47-37.92,.04-21.38-17.81-39.16-39.36-39.2Z"/><path d="M296.8,163.99h8.72c-1.23,1.24-1.97,2.67-2.84,2.74-2.12,.19-4.87,1.11-5.88-2.74Z"/><path d="M656.87,346.01c5.83,.35,10.27,3.3,12.39,7.65-5.29,1.58-5.94,1.32-8.21-3.1-.43-.83-1.02-1.6-1.64-2.31-.54-.61-1.22-1.09-2.54-2.24Z"/><path d="M154.22,248.22c-.72,.06-1.43,.12-2.15,.17-6.69,.47-9.17-1.27-10.81-7.72-1.48-5.81-1.32-11.65,.46-17.33,1.83-5.84,6-9.32,12-10.62,11.91-2.58,23.72,7.71,22.6,19.79-.21,2.25-.66,4.5-1.29,6.67-1.45,5.02-4.85,7.78-10.09,8.23-3.57,.31-7.14,.65-10.71,.97l-.02-.17Z"/><path d="M165.72,457.53c-.22-19.29,16.96-36.44,36.78-36.71,20.86-.29,38.13,16.1,38.83,35.87,.74,20.96-17.09,37.77-36.77,37.93-21.58,.18-38.6-16.07-38.83-37.09Zm35.1,9.99l-.73-.94c-7.75,4.74-11.74,13.09-18.17,19.62,1.89,1.22,3.34,2.15,4.93,3.17,4.79-7.48,9.38-14.66,13.98-21.84Zm-9.99-11.13l.06-1.88c-6.32-1.04-12.65-2.05-18.97-3.14-4.73-.81-5.07-.52-4.41,4.61,7.77,1.01,15.54,.66,23.32,.4Zm4.48,2.99c.19-6.45,1.73-11.81,9.93-12.51-4.9-2.36-4.94-1.98-9.22,2.57-3.55,3.77-3.66,6.69-.7,9.93Z"/><path d="M633.05,420.76c20.87-.03,37.85,16.81,37.79,37.48-.06,19.48-17.45,36.33-37.53,36.36-21.08,.03-38.33-16.37-38.38-36.51-.05-21,16.58-37.3,38.12-37.33Zm1.65,25.83c-1.02-.9-2.77-2.62-4.72-4.06-.79-.59-2.04-.56-3.07-.82,.07,.86,.04,1.74,.25,2.56,.2,.76,.66,1.45,.79,1.73-1.27,1.45-2.74,2.45-3.23,3.8-1.85,5.09-5.47,4.99-9.66,3.75-.34-.1-.69-.2-1.05-.25-5.61-.87-11.22-1.73-17.04-2.62-.31,1.97-.55,3.45-.95,5.98,5.25,0,10-.14,14.73,.04,4.63,.17,9.81-1.9,13.29,3.28,1.03-3.54,1.14-7.33,3.05-9.59,1.87-2.21,5.57-2.87,7.59-3.8Zm-18.56,42.79c4.79-7.55,9.3-14.66,14.32-22.58-1.71,.44-3.23,.35-3.82,1.05-4.99,5.88-9.8,11.9-14.86,18.12,1.59,1.25,2.78,2.17,4.37,3.41Z"/></svg>